<svg width="230" height="32" viewBox="0 0 230 32" fill="none" xmlns="http://www.w3.org/2000/svg">
<path d="M221.075 6.58545C223.877 6.58545 226.057 7.52413 227.617 9.4015C229.206 11.2789 230 13.8205 230 17.0265V31.1934H220.425V18.2396C220.425 17.0843 220.108 16.1745 219.472 15.5102C218.866 14.817 218.043 14.4704 217.003 14.4704C215.934 14.4704 215.097 14.817 214.49 15.5102C213.883 16.1745 213.58 17.0843 213.58 18.2396V31.1934H203.962V6.75875H213.58V10.4846C214.331 9.32929 215.328 8.39061 216.57 7.66854C217.84 6.94648 219.342 6.58545 221.075 6.58545Z" fill="white"/>
<path d="M172.35 18.9757C172.35 16.4051 172.783 14.1812 173.649 12.3038C174.545 10.3975 175.758 8.95342 177.289 7.97141C178.819 6.96052 180.538 6.45508 182.444 6.45508C184.033 6.45508 185.405 6.78723 186.56 7.45153C187.715 8.08694 188.596 8.96786 189.203 10.0943V6.75835H198.777V31.193H189.203V27.8571C188.596 28.9835 187.715 29.8788 186.56 30.5431C185.405 31.1786 184.033 31.4963 182.444 31.4963C180.538 31.4963 178.819 31.0053 177.289 30.0233C175.758 29.0124 174.545 27.5682 173.649 25.6909C172.783 23.7846 172.35 21.5462 172.35 18.9757ZM189.203 18.9757C189.203 17.676 188.87 16.6651 188.206 15.943C187.542 15.2209 186.69 14.8599 185.65 14.8599C184.61 14.8599 183.758 15.2209 183.094 15.943C182.43 16.6651 182.097 17.676 182.097 18.9757C182.097 20.2754 182.43 21.2863 183.094 22.0083C183.758 22.7304 184.61 23.0914 185.65 23.0914C186.69 23.0914 187.542 22.7304 188.206 22.0083C188.87 21.2863 189.203 20.2754 189.203 18.9757Z" fill="white"/>
<path d="M145.082 18.9757C145.082 16.434 145.602 14.2245 146.642 12.3471C147.711 10.4409 149.184 8.9823 151.061 7.97141C152.967 6.96052 155.134 6.45508 157.56 6.45508C160.737 6.45508 163.408 7.35044 165.575 9.14116C167.77 10.9319 169.156 13.4158 169.734 16.5929H159.553C159.177 15.322 158.441 14.6866 157.343 14.6866C156.563 14.6866 155.942 15.0476 155.48 15.7697C155.047 16.4918 154.83 17.5604 154.83 18.9757C154.83 20.3909 155.047 21.4596 155.48 22.1816C155.942 22.9037 156.563 23.2647 157.343 23.2647C158.441 23.2647 159.177 22.6293 159.553 21.3585H169.734C169.156 24.5356 167.77 27.0195 165.575 28.8102C163.408 30.6009 160.737 31.4963 157.56 31.4963C155.134 31.4963 152.967 30.9908 151.061 29.9799C149.184 28.969 147.711 27.5249 146.642 25.6475C145.602 23.7413 145.082 21.5173 145.082 18.9757Z" fill="white"/>
<path d="M130.439 31.4964C126.771 31.4964 123.738 30.6444 121.341 28.9403C118.972 27.2074 117.687 24.6802 117.485 21.3587H127.709C127.854 23.1205 128.634 24.0014 130.049 24.0014C130.569 24.0014 131.002 23.8859 131.349 23.6548C131.724 23.3949 131.912 23.005 131.912 22.4851C131.912 21.763 131.522 21.1854 130.742 20.7521C129.962 20.29 128.749 19.7701 127.103 19.1925C125.139 18.4993 123.507 17.8205 122.207 17.1562C120.936 16.4919 119.839 15.5244 118.915 14.2535C117.99 12.9827 117.543 11.3508 117.572 9.35795C117.572 7.36505 118.077 5.67542 119.088 4.28906C120.128 2.87382 121.529 1.80516 123.29 1.0831C125.081 0.361032 127.088 0 129.312 0C133.067 0 136.042 0.866477 138.237 2.59943C140.461 4.33239 141.631 6.77296 141.746 9.92116H131.392C131.363 9.05468 131.146 8.43371 130.742 8.05823C130.338 7.68276 129.847 7.49502 129.269 7.49502C128.865 7.49502 128.533 7.63944 128.273 7.92826C128.013 8.18821 127.883 8.56368 127.883 9.05468C127.883 9.74787 128.258 10.3255 129.009 10.7876C129.789 11.2209 131.016 11.7552 132.692 12.3906C134.627 13.1127 136.215 13.8059 137.457 14.4702C138.728 15.1345 139.826 16.0587 140.75 17.2429C141.674 18.4271 142.136 19.9145 142.136 21.7052C142.136 23.5826 141.674 25.2722 140.75 26.7741C139.826 28.2471 138.483 29.4025 136.721 30.24C134.959 31.0776 132.865 31.4964 130.439 31.4964Z" fill="white"/>
<path d="M101.64 31.4963C99.1846 31.4963 96.9751 30.9908 95.0111 29.9799C93.0471 28.969 91.5019 27.5249 90.3754 25.6475C89.2779 23.7413 88.7291 21.5173 88.7291 18.9757C88.7291 16.434 89.2779 14.2245 90.3754 12.3471C91.5019 10.4409 93.0471 8.9823 95.0111 7.97141C96.9751 6.96052 99.1846 6.45508 101.64 6.45508C104.095 6.45508 106.304 6.96052 108.268 7.97141C110.232 8.9823 111.763 10.4409 112.861 12.3471C113.987 14.2245 114.55 16.434 114.55 18.9757C114.55 21.5173 113.987 23.7413 112.861 25.6475C111.763 27.5249 110.232 28.969 108.268 29.9799C106.304 30.9908 104.095 31.4963 101.64 31.4963ZM101.64 23.1781C102.535 23.1781 103.286 22.8315 103.892 22.1383C104.499 21.4162 104.802 20.362 104.802 18.9757C104.802 17.5893 104.499 16.5495 103.892 15.8564C103.286 15.1343 102.535 14.7733 101.64 14.7733C100.744 14.7733 99.9933 15.1343 99.3868 15.8564C98.7803 16.5495 98.477 17.5893 98.477 18.9757C98.477 20.362 98.7658 21.4162 99.3435 22.1383C99.95 22.8315 100.715 23.1781 101.64 23.1781Z" fill="white"/>
<path d="M61.4624 18.9757C61.4624 16.434 61.9823 14.2245 63.0221 12.3471C64.0907 10.4409 65.5637 8.9823 67.4411 7.97141C69.3473 6.96052 71.5135 6.45508 73.9397 6.45508C77.1168 6.45508 79.7884 7.35044 81.9546 9.14116C84.1497 10.9319 85.536 13.4158 86.1137 16.5929H75.9326C75.5571 15.322 74.8206 14.6866 73.723 14.6866C72.9432 14.6866 72.3222 15.0476 71.8601 15.7697C71.4269 16.4918 71.2103 17.5604 71.2103 18.9757C71.2103 20.3909 71.4269 21.4596 71.8601 22.1816C72.3222 22.9037 72.9432 23.2647 73.723 23.2647C74.8206 23.2647 75.5571 22.6293 75.9326 21.3585H86.1137C85.536 24.5356 84.1497 27.0195 81.9546 28.8102C79.7884 30.6009 77.1168 31.4963 73.9397 31.4963C71.5135 31.4963 69.3473 30.9908 67.4411 29.9799C65.5637 28.969 64.0907 27.5249 63.0221 25.6475C61.9823 23.7413 61.4624 21.5173 61.4624 18.9757Z" fill="white"/>
<path d="M45.9637 31.4963C43.5087 31.4963 41.2992 30.9908 39.3352 29.9799C37.3712 28.969 35.8259 27.5249 34.6995 25.6475C33.602 23.7413 33.0532 21.5173 33.0532 18.9757C33.0532 16.434 33.602 14.2245 34.6995 12.3471C35.8259 10.4409 37.3712 8.9823 39.3352 7.97141C41.2992 6.96052 43.5087 6.45508 45.9637 6.45508C48.4187 6.45508 50.6283 6.96052 52.5923 7.97141C54.5563 8.9823 56.0871 10.4409 57.1846 12.3471C58.311 14.2245 58.8742 16.434 58.8742 18.9757C58.8742 21.5173 58.311 23.7413 57.1846 25.6475C56.0871 27.5249 54.5563 28.969 52.5923 29.9799C50.6283 30.9908 48.4187 31.4963 45.9637 31.4963ZM45.9637 23.1781C46.8591 23.1781 47.61 22.8315 48.2166 22.1383C48.8231 21.4162 49.1264 20.362 49.1264 18.9757C49.1264 17.5893 48.8231 16.5495 48.2166 15.8564C47.61 15.1343 46.8591 14.7733 45.9637 14.7733C45.0684 14.7733 44.3174 15.1343 43.7109 15.8564C43.1044 16.5495 42.8011 17.5893 42.8011 18.9757C42.8011 20.362 43.0899 21.4162 43.6676 22.1383C44.2741 22.8315 45.0395 23.1781 45.9637 23.1781Z" fill="white"/>
<path d="M0 15.8139C0 12.7812 0.606534 10.0807 1.8196 7.71231C3.06155 5.34394 4.82339 3.5099 7.10511 2.21018C9.38683 0.881584 12.0729 0.217285 15.1633 0.217285C17.8205 0.217285 20.1889 0.722731 22.2685 1.73362C24.3769 2.71563 26.081 4.11643 27.3807 5.93603C28.7093 7.75564 29.5902 9.8785 30.0234 12.3046H19.8857C19.4235 11.2938 18.7592 10.5139 17.8928 9.96515C17.0552 9.3875 16.0876 9.09867 14.9901 9.09867C13.3726 9.09867 12.0874 9.70521 11.1342 10.9183C10.21 12.1313 9.74787 13.7632 9.74787 15.8139C9.74787 17.8645 10.21 19.4964 11.1342 20.7095C12.0874 21.9225 13.3726 22.5291 14.9901 22.5291C16.0876 22.5291 17.0552 22.2547 17.8928 21.7059C18.7592 21.1283 19.4235 20.334 19.8857 19.3231H30.0234C29.5902 21.7492 28.7093 23.8721 27.3807 25.6917C26.081 27.5113 24.3769 28.9266 22.2685 29.9374C20.1889 30.9195 17.8205 31.4105 15.1633 31.4105C12.0729 31.4105 9.38683 30.7606 7.10511 29.4609C4.82339 28.1323 3.06155 26.2838 1.8196 23.9154C0.606534 21.5471 0 18.8465 0 15.8139Z" fill="white"/>
</svg>
