<svg width="269" height="37" viewBox="0 0 269 37" fill="none" xmlns="http://www.w3.org/2000/svg">
<path d="M258.562 7.70215C261.839 7.70215 264.389 8.8 266.213 10.9957C268.071 13.1914 269 16.164 269 19.9136V36.4827H257.802V21.3324C257.802 19.9812 257.43 18.9171 256.687 18.1402C255.978 17.3295 255.015 16.9241 253.799 16.9241C252.549 16.9241 251.569 17.3295 250.86 18.1402C250.151 18.9171 249.796 19.9812 249.796 21.3324V36.4827H238.547V7.90483H249.796V12.2625C250.674 10.9113 251.84 9.8134 253.292 8.9689C254.779 8.1244 256.535 7.70215 258.562 7.70215Z" fill="#3AB54B"/>
<path d="M201.574 22.1935C201.574 19.187 202.081 16.586 203.094 14.3903C204.141 12.1608 205.56 10.4718 207.35 9.32326C209.141 8.14096 211.151 7.5498 213.38 7.5498C215.238 7.5498 216.843 7.93828 218.194 8.71522C219.545 9.45838 220.575 10.4887 221.285 11.8061V7.9045H232.483V36.4824H221.285V32.5808C220.575 33.8982 219.545 34.9454 218.194 35.7224C216.843 36.4655 215.238 36.8371 213.38 36.8371C211.151 36.8371 209.141 36.2628 207.35 35.1143C205.56 33.932 204.141 32.243 203.094 30.0473C202.081 27.8178 201.574 25.1999 201.574 22.1935ZM221.285 22.1935C221.285 20.6734 220.896 19.4911 220.119 18.6466C219.342 17.8021 218.346 17.3798 217.13 17.3798C215.914 17.3798 214.917 17.8021 214.14 18.6466C213.363 19.4911 212.975 20.6734 212.975 22.1935C212.975 23.7136 213.363 24.8959 214.14 25.7404C214.917 26.5849 215.914 27.0071 217.13 27.0071C218.346 27.0071 219.342 26.5849 220.119 25.7404C220.896 24.8959 221.285 23.7136 221.285 22.1935Z" fill="#3AB54B"/>
<path d="M169.683 22.1935C169.683 19.2208 170.291 16.6366 171.507 14.4409C172.757 12.2115 174.48 10.5056 176.676 9.32326C178.905 8.14096 181.439 7.5498 184.276 7.5498C187.992 7.5498 191.117 8.59699 193.65 10.6914C196.218 12.7857 197.839 15.6908 198.515 19.4066H186.607C186.168 17.9203 185.307 17.1771 184.023 17.1771C183.111 17.1771 182.385 17.5994 181.844 18.4439C181.337 19.2884 181.084 20.5382 181.084 22.1935C181.084 23.8487 181.337 25.0985 181.844 25.943C182.385 26.7875 183.111 27.2098 184.023 27.2098C185.307 27.2098 186.168 26.4666 186.607 24.9803H198.515C197.839 28.6961 196.218 31.6012 193.65 33.6956C191.117 35.7899 187.992 36.8371 184.276 36.8371C181.439 36.8371 178.905 36.246 176.676 35.0637C174.48 33.8814 172.757 32.1924 171.507 29.9966C170.291 27.7672 169.683 25.1661 169.683 22.1935Z" fill="#3AB54B"/>
<path d="M152.557 36.8371C148.267 36.8371 144.72 35.8406 141.916 33.8476C139.146 31.8208 137.643 28.865 137.406 24.9803H149.364C149.533 27.0409 150.445 28.0712 152.101 28.0712C152.709 28.0712 153.215 27.9361 153.621 27.6659C154.06 27.3618 154.28 26.9058 154.28 26.2978C154.28 25.4533 153.823 24.7777 152.911 24.271C151.999 23.7305 150.581 23.1224 148.655 22.4468C146.358 21.6361 144.45 20.8423 142.929 20.0653C141.443 19.2884 140.159 18.1568 139.078 16.6705C137.998 15.1841 137.474 13.2756 137.508 10.9447C137.508 8.61391 138.099 6.63778 139.281 5.01634C140.497 3.36111 142.136 2.11125 144.196 1.26675C146.291 0.42225 148.638 0 151.239 0C155.631 0 159.11 1.0134 161.677 3.0402C164.278 5.06701 165.646 7.92142 165.782 11.6034H153.671C153.638 10.59 153.384 9.86377 152.911 9.42463C152.438 8.98549 151.864 8.76592 151.189 8.76592C150.716 8.76592 150.327 8.93482 150.023 9.27262C149.719 9.57664 149.567 10.0158 149.567 10.59C149.567 11.4008 150.006 12.0764 150.885 12.6168C151.797 13.1235 153.232 13.7485 155.192 14.4916C157.455 15.3361 159.313 16.1469 160.765 16.9238C162.252 17.7007 163.535 18.7817 164.616 20.1667C165.697 21.5517 166.238 23.2913 166.238 25.3857C166.238 27.5814 165.697 29.5575 164.616 31.3141C163.535 33.0369 161.964 34.3881 159.904 35.3677C157.843 36.3473 155.394 36.8371 152.557 36.8371Z" fill="#3AB54B"/>
<path d="M118.874 36.8371C116.003 36.8371 113.419 36.246 111.122 35.0637C108.825 33.8814 107.017 32.1924 105.7 29.9966C104.416 27.7672 103.775 25.1661 103.775 22.1935C103.775 19.2208 104.416 16.6366 105.7 14.4409C107.017 12.2115 108.825 10.5056 111.122 9.32326C113.419 8.14096 116.003 7.5498 118.874 7.5498C121.746 7.5498 124.33 8.14096 126.627 9.32326C128.924 10.5056 130.714 12.2115 131.998 14.4409C133.315 16.6366 133.974 19.2208 133.974 22.1935C133.974 25.1661 133.315 27.7672 131.998 29.9966C130.714 32.1924 128.924 33.8814 126.627 35.0637C124.33 36.246 121.746 36.8371 118.874 36.8371ZM118.874 27.1085C119.921 27.1085 120.8 26.7031 121.509 25.8924C122.218 25.0479 122.573 23.8149 122.573 22.1935C122.573 20.572 122.218 19.3559 121.509 18.5452C120.8 17.7007 119.921 17.2785 118.874 17.2785C117.827 17.2785 116.949 17.7007 116.239 18.5452C115.53 19.3559 115.175 20.572 115.175 22.1935C115.175 23.8149 115.513 25.0479 116.189 25.8924C116.898 26.7031 117.793 27.1085 118.874 27.1085Z" fill="#3AB54B"/>
<path d="M71.8843 22.1935C71.8843 19.2208 72.4923 16.6366 73.7084 14.4409C74.9583 12.2115 76.681 10.5056 78.8767 9.32326C81.1062 8.14096 83.6397 7.5498 86.4773 7.5498C90.1931 7.5498 93.3177 8.59699 95.8512 10.6914C98.4185 12.7857 100.04 15.6908 100.716 19.4066H88.8081C88.3689 17.9203 87.5075 17.1771 86.2239 17.1771C85.3118 17.1771 84.5856 17.5994 84.0451 18.4439C83.5384 19.2884 83.285 20.5382 83.285 22.1935C83.285 23.8487 83.5384 25.0985 84.0451 25.943C84.5856 26.7875 85.3118 27.2098 86.2239 27.2098C87.5075 27.2098 88.3689 26.4666 88.8081 24.9803H100.716C100.04 28.6961 98.4185 31.6012 95.8512 33.6956C93.3177 35.7899 90.1931 36.8371 86.4773 36.8371C83.6397 36.8371 81.1062 36.246 78.8767 35.0637C76.681 33.8814 74.9583 32.1924 73.7084 29.9966C72.4923 27.7672 71.8843 25.1661 71.8843 22.1935Z" fill="#3AB54B"/>
<path d="M53.7575 36.8371C50.8862 36.8371 48.302 36.246 46.005 35.0637C43.708 33.8814 41.9007 32.1924 40.5833 29.9966C39.2997 27.7672 38.6578 25.1661 38.6578 22.1935C38.6578 19.2208 39.2997 16.6366 40.5833 14.4409C41.9007 12.2115 43.708 10.5056 46.005 9.32326C48.302 8.14096 50.8862 7.5498 53.7575 7.5498C56.6288 7.5498 59.213 8.14096 61.51 9.32326C63.8071 10.5056 65.5974 12.2115 66.8811 14.4409C68.1985 16.6366 68.8572 19.2208 68.8572 22.1935C68.8572 25.1661 68.1985 27.7672 66.8811 29.9966C65.5974 32.1924 63.8071 33.8814 61.51 35.0637C59.213 36.246 56.6288 36.8371 53.7575 36.8371ZM53.7575 27.1085C54.8047 27.1085 55.683 26.7031 56.3924 25.8924C57.1017 25.0479 57.4564 23.8149 57.4564 22.1935C57.4564 20.572 57.1017 19.3559 56.3924 18.5452C55.683 17.7007 54.8047 17.2785 53.7575 17.2785C52.7103 17.2785 51.8321 17.7007 51.1227 18.5452C50.4133 19.3559 50.0586 20.572 50.0586 22.1935C50.0586 23.8149 50.3964 25.0479 51.072 25.8924C51.7814 26.7031 52.6766 27.1085 53.7575 27.1085Z" fill="#3AB54B"/>
<path d="M0 18.4949C0 14.948 0.709381 11.7895 2.12814 9.01958C3.58069 6.24962 5.64127 4.10459 8.30989 2.58449C10.9785 1.0306 14.1201 0.253662 17.7345 0.253662C20.8423 0.253662 23.6123 0.844813 26.0444 2.02712C28.5104 3.17564 30.5034 4.81397 32.0235 6.94211C33.5774 9.07025 34.6077 11.5531 35.1144 14.3906H23.2576C22.7171 13.2083 21.9401 12.2962 20.9267 11.6544C19.9471 10.9788 18.8155 10.641 17.5318 10.641C15.6402 10.641 14.1369 11.3504 13.0222 12.7692C11.9412 14.1879 11.4008 16.0965 11.4008 18.4949C11.4008 20.8933 11.9412 22.8018 13.0222 24.2206C14.1369 25.6394 15.6402 26.3487 17.5318 26.3487C18.8155 26.3487 19.9471 26.0278 20.9267 25.386C21.9401 24.7104 22.7171 23.7815 23.2576 22.5992H35.1144C34.6077 25.4367 33.5774 27.9195 32.0235 30.0477C30.5034 32.1758 28.5104 33.831 26.0444 35.0133C23.6123 36.1619 20.8423 36.7361 17.7345 36.7361C14.1201 36.7361 10.9785 35.9761 8.30989 34.456C5.64127 32.9021 3.58069 30.7402 2.12814 27.9702C0.709381 25.2002 0 22.0418 0 18.4949Z" fill="#3AB54B"/>
</svg>
